<?xml version="1.0" encoding="UTF-8"?><svg id="Layer_1" xmlns="http://www.w3.org/2000/svg" width="24in" height="24in" viewBox="0 0 1728 1728"><defs><style>.cls-1{fill:#fff;stroke-width:0px;}</style></defs><path class="cls-1" d="m0,0v1728h1728V0H0Zm308.32,1164.13H121.8v-600.27h186.52v600.27Zm468.7,0l-16.11-83.09h-103.44l-16.11,83.09h-183.98l141.59-600.27h228.07l142.44,600.27h-192.46Zm829.18,0h-179.74l8.48-342.53h-3.39l-74.61,342.53h-117l-68.67-342.53h-3.39l7.63,342.53h-165.33v-600.27h219.59l70.37,313.7h3.39l69.52-313.7h233.15v600.27Z"/><polygon class="cls-1" points="707.5 743.61 677.83 938.61 738.87 938.61 710.89 743.61 707.5 743.61"/></svg>